<?xml version="1.0" ?><svg enable-background="new 0 0 24 24" id="Layer_1" version="1.1" viewBox="0 0 24 24" xml:space="preserve" xmlns="http://www.w3.org/2000/svg" xmlns:xlink="http://www.w3.org/1999/xlink"><g><path d="M11.9853516,13.5784855c-0.0732422,0-0.1464844-0.0161133-0.2148438-0.0483398l-4.5-2.1425781   c-0.2490234-0.1191406-0.3554688-0.4174805-0.2363281-0.6665039c0.1181641-0.2495117,0.4179688-0.3540039,0.6660156-0.2368164   l4.2851563,2.0405273l4.3144531-2.0546875c0.2480373-0.1181641,0.546875-0.0136719,0.6660156,0.2368164   c0.1191406,0.2490234,0.0126953,0.5473633-0.2363281,0.6665039l-4.5292969,2.1567383   C12.1318359,13.5623722,12.0585938,13.5784855,11.9853516,13.5784855z" fill="#303C42"/></g><g><path d="M22.7148438,6.1560059L18.765625,4.2751465c-0.2480469-0.1166992-0.5478516-0.0131836-0.6660156,0.2368164   c-0.1191406,0.2490234-0.0126953,0.5473633,0.2363281,0.6665039L22,6.923584v5.184082c0,0.2763672,0.2236328,0.5,0.5,0.5   s0.5-0.2236328,0.5-0.5v-5.5C23,6.4147949,22.8886719,6.2390137,22.7148438,6.1560059z" fill="#303C42"/><path d="M1.5,12.607666c0.2763672,0,0.5-0.2236328,0.5-0.5V6.923584l3.7763672-1.7978516   C6.0253906,5.0065918,6.1318359,4.708252,6.0126953,4.4592285c-0.1181641-0.25-0.4199219-0.3540039-0.6660156-0.2368164   L1.2851563,6.1560059C1.1113281,6.2390137,1,6.4147949,1,6.607666v5.5C1,12.3840332,1.2236328,12.607666,1.5,12.607666z" fill="#303C42"/><path d="M7.7148438,4.2019043L12,2.161377l4.3144531,2.0546875   c0.0693359,0.0327148,0.1425781,0.0483398,0.2148438,0.0483398c0.1865234,0,0.3662109-0.1049805,0.4511719-0.2851563   c0.1191406-0.2490234,0.0126953-0.5473633-0.2363281-0.6665039l-4.5292969-2.1567383   c-0.1367188-0.0644531-0.2929688-0.0644531-0.4296875,0l-4.5,2.1425781   C7.0361328,3.4177246,6.9296875,3.7160645,7.0488281,3.9650879C7.1660156,4.2145996,7.4658203,4.3186035,7.7148438,4.2019043z" fill="#303C42"/><path d="M22.5,13.607666c-0.2763672,0-0.5,0.2236328-0.5,0.5v5.184082l-3.6640625,1.7451172   c-0.2490234,0.1191406-0.3554688,0.4174805-0.2363281,0.6665039c0.0849609,0.1801758,0.2646484,0.2851563,0.4511719,0.2851563   c0.0722656,0,0.1455078-0.015625,0.2148438-0.0483398l3.9492188-1.8808594C22.8886719,19.9763184,23,19.8005371,23,19.607666v-5.5   C23,13.8312988,22.7763672,13.607666,22.5,13.607666z" fill="#303C42"/><path d="M5.7763672,21.0900879L2,19.291748v-5.184082c0-0.2763672-0.2236328-0.5-0.5-0.5s-0.5,0.2236328-0.5,0.5   v5.5c0,0.1928711,0.1113281,0.3686523,0.2851563,0.4516602l4.0615234,1.934082   c0.0693359,0.0327148,0.1425781,0.0483398,0.2148438,0.0483398c0.1865234,0,0.3662109-0.1049805,0.4511719-0.2851563   C6.1318359,21.5075684,6.0253906,21.2092285,5.7763672,21.0900879z" fill="#303C42"/><path d="M15.4648438,16.8908691l2.6591797,2.1505737c-0.0700684,0.1344604-0.0860596,0.2949829-0.015625,0.4421997   c0.0849609,0.1801758,0.2646484,0.2851563,0.4511719,0.2851563c0.0722656,0,0.1455078-0.015625,0.2148438-0.0483398   l1.9404297-0.9238281C20.8886719,18.713623,21,18.5378418,21,18.3449707v-2.2753906c0-0.2763672-0.2236328-0.5-0.5-0.5   c-0.1739502,0-0.3195801,0.0941162-0.4091187,0.2286987L17,14.5148926v-2.7929688l3.0933228-1.3021851   c0.0899048,0.1325684,0.234314,0.2250366,0.4066772,0.2250366c0.2763672,0,0.5-0.2236328,0.5-0.5V7.8703613   c0-0.1928711-0.1113281-0.3686523-0.2851563-0.4516602l-1.9462891-0.9267578   c-0.2490234-0.1181641-0.5478516-0.0131836-0.6660156,0.2368164c-0.0714111,0.149292-0.0539551,0.3121338,0.0188599,0.4476318   l-2.661438,2.1466064l-1.9208984-1.015625l0.3791504-3.017334l0.1286621,0.0612793   c0.0693359,0.0327148,0.1425781,0.0483398,0.2148438,0.0483398c0.1865234,0,0.3662109-0.1049805,0.4511719-0.2851563   c0.1191406-0.2495117,0.0126953-0.5478516-0.2363281-0.6665039l-2.2617188-1.0766602   c-0.1367188-0.0644531-0.2929688-0.0644531-0.4296875,0L9.5429688,4.4387207   C9.2939453,4.5578613,9.1874914,4.8562012,9.3066406,5.1052246C9.4248047,5.3547363,9.7236328,5.4587402,9.9726563,5.342041   l0.1107178-0.0527344l0.3883057,3.0180664L8.3769531,9.4104004L5.8917847,7.2255249   c0.1154785-0.1449585,0.1495361-0.3463135,0.06427-0.5245972C5.8378906,6.4504395,5.5371094,6.3469238,5.2900391,6.4641113   L3.2851563,7.4187012C3.1113281,7.501709,3,7.6774902,3,7.8703613v2.2753906c0,0.2763672,0.2236328,0.5,0.5,0.5   c0.1751099,0,0.3216553-0.0952148,0.4109497-0.2313843L7,11.6784668v2.8691406l-3.0897217,1.2553101   C3.8208618,15.6673584,3.6746826,15.5725098,3.5,15.5725098c-0.2763672,0-0.5,0.2236328-0.5,0.5v2.2724609   c0,0.1928711,0.1113281,0.3686523,0.2851563,0.4511719c0,0,2.203125,1.0302734,2.2753906,1.0302734   c0.1865234,0,0.3652344-0.1049805,0.4511719-0.2851563c0.0896606-0.187439,0.0512085-0.4025269-0.0792847-0.5482178   l2.6027222-2.1021729l1.9150391,1.0166016l-0.3699951,3.0170288L9.9726563,20.873291   c-0.2480469-0.1171875-0.5478516-0.0136719-0.6660156,0.2368164c-0.1191492,0.2490234-0.0126953,0.5473633,0.2363281,0.6665039   l2.2421875,1.0673828C11.8535156,22.8762207,11.9267578,22.892334,12,22.892334s0.1474609-0.0161133,0.2148438-0.0488281   l2.2041016-1.0498047c0.2490234-0.1186523,0.3554688-0.4169922,0.2363281-0.6660156   c-0.1201172-0.2504883-0.4189453-0.3549805-0.6660156-0.2368164l-0.069519,0.0331421l-0.3699341-3.0165405L15.4648438,16.8908691z" fill="#303C42"/></g><g/><g/><g/><g/><g/><g/><g/><g/><g/><g/><g/><g/><g/><g/><g/></svg>