<?xml version="1.0" encoding="UTF-8"?>
<!DOCTYPE svg PUBLIC "-//W3C//DTD SVG 1.1//EN" "http://www.w3.org/Graphics/SVG/1.1/DTD/svg11.dtd">
<!-- Creator: CorelDRAW 2020 (64-Bit) -->
<svg xmlns="http://www.w3.org/2000/svg" xml:space="preserve" width="40.64mm" height="40.64mm" version="1.1" style="shape-rendering:geometricPrecision; text-rendering:geometricPrecision; image-rendering:optimizeQuality; fill-rule:evenodd; clip-rule:evenodd"
viewBox="0 0 4064 4064"
 xmlns:xlink="http://www.w3.org/1999/xlink"
 xmlns:xodm="http://www.corel.com/coreldraw/odm/2003">
 <defs>
  <style type="text/css">
   <![CDATA[
    .fil3 {fill:#1A2A31;fill-rule:nonzero}
    .fil1 {fill:#243A44;fill-rule:nonzero}
    .fil0 {fill:#41B883;fill-rule:nonzero}
    .fil4 {fill:#445D67;fill-rule:nonzero}
    .fil2 {fill:#7C9AA5;fill-rule:nonzero}
    .fil6 {fill:#F9F7F6;fill-rule:nonzero}
    .fil5 {fill:#F9FBFB;fill-rule:nonzero}
   ]]>
  </style>
 </defs>
 <g id="Слой_x0020_1">
  <metadata id="CorelCorpID_0Corel-Layer"/>
  <g id="_1262298285376">
   <g>
    <g>
     <g>
      <path class="fil0" d="M3609.82 2712.39c0,25.1 -1.08,50.03 -3.05,74.78l-0.18 0c-158.88,-99.53 -660.98,-301.09 -660.98,-301.09 0,0 -174.3,-148.48 -275.8,-286.91 12.74,-47.34 35.15,-152.24 55.77,-251.05 2.87,-13.63 5.74,-27.25 8.43,-40.52 7.35,-1.08 14.35,-2.52 21.16,-3.95 109.03,-23.49 154.58,-89.3 168.39,-185.6 414.59,217.34 686.26,581.72 686.26,994.34z"/>
      <path class="fil1" d="M3358.05 2705.21c11.66,8.97 198.33,152.79 207.12,179.68 8.96,26.9 -66.53,277.06 -110.82,349.5 -1.26,2.15 -2.69,4.31 -3.95,6.1 -140.76,220.21 -367.07,402.93 -645.73,522.72 137,-154.93 207.83,-410.29 207.83,-410.29l-86.26 -305.38 197.44 -45.73 40.88 -222.72c-44.47,-122.47 -147.04,-207.47 -147.04,-207.47 -21.7,-29.41 -45.9,-58.64 -71.91,-85.54 0,0 502.1,201.56 660.98,301.09l0.18 0c-0.9,12.9 -2.33,25.46 -3.94,38.19l-244.78 -120.15z"/>
      <path class="fil2" d="M3358.05 2705.21l244.78 120.15c-17.58,145.43 -69.04,283.33 -148.48,409.03 44.29,-72.44 119.78,-322.6 110.82,-349.5 -8.79,-26.89 -195.46,-170.71 -207.12,-179.68z"/>
      <path class="fil3" d="M3203.12 1007.22c122.3,37.3 272.39,143.46 266.29,263.07 0,0 -29.77,-60.62 -108.85,-143.46 -74.06,-77.65 -148.48,-115.13 -157.44,-119.61z"/>
      <path class="fil1" d="M3302.64 1503.4c-13.27,6.28 -445.61,208.38 -1273.36,208.38l0 -349.86c275.8,0 530.97,-40.35 690.03,-106.34 152.06,-63.12 225.05,-121.22 226.3,-143.46 1.26,-22.41 -101.85,-39.99 -101.85,-39.99l-1.62 0.18c-5.56,-44.11 -13.09,-91.63 -21.34,-140.94 -1.07,-5.92 -2.15,-12.02 -3.22,-18.11l23.31 -0.54c679.81,44.83 750.28,341.6 609.33,515.91 -83.2,102.93 -223.25,205.86 -524.69,272.93 -7.35,1.61 -14.89,3.22 -22.42,4.84 -41.42,8.78 -85.71,16.85 -133.23,24.2 -190.26,29.41 -431.81,46.81 -740.6,46.81l0 -31.56c752.61,0 1084.18,-116.2 1273.36,-242.45zm166.77 -233.11l0 0c6.1,-119.61 -143.99,-225.77 -266.29,-263.07 -0.36,-0.18 -0.54,-0.18 -0.9,-0.36 0,0 0.36,0.18 0.9,0.36 8.96,4.48 83.38,41.96 157.44,119.61 79.08,82.84 108.85,143.46 108.85,143.46z"/>
      <path class="fil3" d="M3088.35 2966.13l0.18 0c31.92,-115.67 49.67,-194.39 49.67,-194.39 0,0 -46.44,-99.88 -120.68,-200.12 0,0 102.57,85 147.04,207.47l-40.88 222.72 -197.44 45.73 86.26 305.38c0,0 -70.83,255.36 -207.83,410.29 -23.14,10.04 -46.63,19.55 -70.48,28.51 95.76,-108.13 180.94,-299.28 248,-487.03 -1.25,-3.05 -109.56,-272.57 -109.56,-272.57l63.48 -19.37 152.24 -46.62z"/>
      <path class="fil1" d="M2945.43 3305.04c-3.4,2.34 -56.66,36.23 -180.93,-28.33 -131.8,-68.5 -131.8,-371.37 -131.8,-371.37 2.51,263.06 -65.28,733.24 -152.43,962.95 -5.02,1.26 -10.22,2.34 -15.42,3.41 45.01,-192.59 116.02,-757.45 135.03,-1185.13 6.46,-142.93 6.99,-270.42 -1.25,-363.67 37.47,-52.18 64.01,-96.83 71.18,-123.73 101.5,138.43 275.8,286.91 275.8,286.91 26.01,26.9 50.21,56.13 71.91,85.54 74.24,100.24 120.68,200.12 120.68,200.12 0,0 -17.75,78.72 -49.67,194.39l-0.18 0 -152.24 46.62 -246.03 -355.59c6.81,12.01 116.74,205.32 182.55,374.96 0,0 108.31,269.52 109.56,272.57 -67.06,187.75 -152.24,378.9 -248,487.03l-0.18 0.18c-14.52,5.56 -29.41,10.94 -44.29,16.14 81.59,-114.94 178.07,-280.46 255.71,-503z"/>
      <path class="fil3" d="M2029.28 1711.78c827.75,0 1260.09,-202.1 1273.36,-208.38 -189.18,126.25 -520.75,242.45 -1273.36,242.45l0 -34.07z"/>
      <path class="fil3" d="M2843.76 1072.13c0,0 103.11,17.58 101.85,39.99 -1.25,22.24 -74.24,80.34 -226.3,143.46 -159.06,65.99 -414.23,106.34 -690.03,106.34l0 -33.54c630.67,0 819.86,-192.77 819.86,-192.77 -1.8,-20.26 -4.13,-41.42 -7,-63.3l1.62 -0.18z"/>
      <path class="fil3" d="M2690.08 2657.16l246.03 355.59 -63.48 19.37c-65.81,-169.64 -175.74,-362.95 -182.55,-374.96z"/>
      <path class="fil2" d="M2923.56 1718.05c-13.81,96.3 -59.36,162.11 -168.39,185.6 0,0 83.39,-64.56 102.75,-89.12 45.19,-57.39 45.19,-108.13 45.19,-108.13 7.53,-1.62 15.07,-3.23 22.42,-4.84 -0.54,5.55 -1.26,11.11 -1.97,16.49z"/>
      <path class="fil1" d="M2764.5 3276.71c124.27,64.56 177.53,30.67 180.93,28.33 -77.64,222.54 -174.12,388.06 -255.71,503 -67.24,23.67 -137.36,43.94 -209.45,60.25 87.15,-229.71 154.94,-699.89 152.43,-962.95 0,0 0,302.87 131.8,371.37z"/>
      <path class="fil3" d="M2903.11 1706.4c0,0 0,50.74 -45.19,108.13 -19.36,24.56 -102.75,89.12 -102.75,89.12 -6.81,1.43 -13.81,2.87 -21.16,3.95 13.09,-62.77 24.39,-118.9 30.49,-150.46 3.41,-16.85 5.38,-26.54 5.38,-26.54 47.52,-7.35 91.81,-15.42 133.23,-24.2z"/>
      <path class="fil4" d="M2120.73 1005.25c394.87,-13.45 624.22,-111 687.88,-142.2 1.97,10.94 3.95,21.69 5.92,32.46 -70.47,42.85 -173.59,73.7 -298.04,97.9 0,0 131.09,28.34 304.31,-62.04 8.25,49.31 15.78,96.83 21.34,140.94 2.87,21.88 5.2,43.04 7,63.3 0,0 -189.19,192.77 -819.86,192.77l0 -321.52c31.38,0 61.86,-0.53 91.45,-1.61z"/>
      <path class="fil1" d="M2817.58 913.26c1.07,6.09 2.15,12.19 3.22,18.11 -173.22,90.38 -304.31,62.04 -304.31,62.04 124.45,-24.2 227.57,-55.05 298.04,-97.9 1.07,5.91 1.97,11.83 3.05,17.75z"/>
      <path class="fil3" d="M2800.72 820.19c2.69,14.34 5.38,28.69 7.89,42.86 -63.66,31.2 -293.01,128.75 -687.88,142.2 419.61,-42.86 575.27,-128.04 679.99,-185.06z"/>
      <path class="fil1" d="M2539.63 198.66c5.2,4.66 87.68,78.54 107.41,155.65 20.27,79.8 76.03,354.34 76.03,354.34l-33.35 -374.6c0,0 -27.97,-70.48 -150.09,-135.39zm174.84 105.8l0 0c12.91,143.1 52.54,334.97 86.25,515.73 -104.72,57.02 -260.38,142.2 -679.99,185.06 -29.59,1.08 -60.07,1.61 -91.45,1.61l0 -707.96c283.87,0 304.13,-166.95 304.13,-166.95 -59.54,42.5 -122.3,79.8 -304.13,79.8l0 -22.24c37.66,1.98 94.32,0.54 159.41,-18.65 74.42,-21.69 128.04,-57.02 159.6,-81.59 52.9,-1.97 118.89,0.36 247.29,92.71 56.48,40.71 94.32,86.62 118.89,122.48z"/>
      <path class="fil3" d="M2769.88 1730.6c0,0 -1.97,9.69 -5.38,26.54 0,0 -43.94,108.67 -76.75,212.32 -40.89,18.65 -82.49,20.09 -198.51,22.24 -150.27,2.69 -192.95,32.45 -252.31,34.24 -59.35,1.8 -124.27,-68.67 -207.65,-68.67l0 -179.86c308.79,0 550.34,-17.4 740.6,-46.81z"/>
      <path class="fil2" d="M2764.5 1757.14c-6.1,31.56 -17.4,87.69 -30.49,150.46 -2.69,13.27 -5.56,26.89 -8.43,40.52 -13.8,8.97 -25.64,15.96 -37.83,21.34 32.81,-103.65 76.75,-212.32 76.75,-212.32z"/>
      <path class="fil4" d="M2689.72 334.05l33.35 374.6c0,0 -55.76,-274.54 -76.03,-354.34 -19.73,-77.11 -102.21,-150.99 -107.41,-155.65 122.12,64.91 150.09,135.39 150.09,135.39z"/>
      <path class="fil5" d="M2687.75 1969.46c12.19,-5.38 24.03,-12.37 37.83,-21.34 -20.62,98.81 -43.03,203.71 -55.77,251.05 -7.17,26.9 -33.71,71.55 -71.18,123.73 -25.47,35.51 -55.95,74.42 -88.77,113.69 -61.87,73.7 -132.16,148.66 -194.03,203.53 10.22,-10.22 105.62,-106.16 188.29,-235.81 87.51,-137 131.8,-209.44 154.04,-324.57 6.1,-31.92 17.04,-70.65 29.59,-110.28z"/>
      <path class="fil2" d="M2155.34 2734.44c-50.03,11.84 -102.03,13.81 -126.06,13.81l0 -259.84c67.07,0 146.86,-48.59 151.89,-51.64 -3.77,0.36 -50.04,5.92 -151.89,5.92l0 -72.99c134.85,0 263.42,-18.47 263.42,-18.47 -69.22,-1.25 -179.32,-29.76 -196.71,-28.33 -17.22,1.44 -66.71,34.43 -66.71,34.43l0 -144.53c56.31,0 81.77,-22.42 93.25,-43.22 70.65,-15.06 78.36,-62.04 78.36,-62.04 -12.2,16.67 -27.79,28.87 -69.04,27.25 0,0 -37.12,52.01 -102.57,52.01l0 -229.53c83.38,0 148.3,70.47 207.65,68.67 59.36,-1.79 102.04,-31.55 252.31,-34.24 116.02,-2.15 157.62,-3.59 198.51,-22.24 -12.55,39.63 -23.49,78.36 -29.59,110.28 -22.24,115.13 -66.53,187.57 -154.04,324.57 -82.67,129.65 -178.07,225.59 -188.29,235.81 -0.53,0.36 -0.89,0.72 -0.89,0.72 -39.81,35.33 -75.86,62.22 -103.83,75.13 -17.04,7.89 -36.22,13.99 -55.77,18.47zm52.36 -625.65l0 0c57.39,14.35 125.17,109.75 134.68,185.06 1.07,13.99 1.07,22.77 1.07,22.77 0.36,-7.35 0,-14.88 -1.07,-22.77 -1.8,-27.97 -6.64,-76.57 -19.91,-114.59 -16.86,-47.88 -91.81,-65.99 -114.77,-70.47z"/>
      <path class="fil5" d="M2598.63 2322.9c8.24,93.25 7.71,220.74 1.25,363.67 -6.99,46.44 -15.78,90.73 -25.11,131.26 -31.02,134.85 -68.14,229.71 -68.14,229.71 -69.75,-97.01 -169.46,-182.19 -244.95,-239.21 -28.15,-21.16 -52.9,-38.56 -71.37,-50.93 138.44,-43.58 216.62,-151.89 319.55,-320.81 32.82,-39.27 63.3,-78.18 88.77,-113.69z"/>
      <path class="fil2" d="M2574.77 2817.83c9.33,-40.53 18.12,-84.82 25.11,-131.26 -19.01,427.68 -90.02,992.54 -135.03,1185.13 -28.87,6.28 -58.1,12.01 -87.51,17.04 91.99,-255.9 194.39,-1046.17 197.43,-1070.91z"/>
      <path class="fil5" d="M2506.63 3047.54c0,0 37.12,-94.86 68.14,-229.71 -3.04,24.74 -105.44,815.01 -197.43,1070.91 -30.48,5.2 -61.15,9.86 -92.35,13.63 0,0 -40.53,-405.99 -53.44,-559.31 -13.09,-153.32 -86.07,-350.03 -86.07,-350.03l67.07 -126.07 19 -22.59c0,0 168.75,103.65 275.08,203.17z"/>
      <path class="fil1" d="M2315.83 2640.12c61.87,-54.87 132.16,-129.83 194.03,-203.53 -102.93,168.92 -181.11,277.23 -319.55,320.81 -20.44,-13.81 -33.18,-21.88 -34.97,-22.96 19.55,-4.48 38.73,-10.58 55.77,-18.47 27.97,-12.91 64.02,-39.8 103.83,-75.13 0,0 0.36,-0.36 0.89,-0.72z"/>
      <path class="fil1" d="M2322.47 2179.26c13.27,38.02 18.11,86.62 19.91,114.59 -9.51,-75.31 -77.29,-170.71 -134.68,-185.06 22.96,4.48 97.91,22.59 114.77,70.47z"/>
      <path class="fil3" d="M2506.63 3047.54c-106.33,-99.52 -275.08,-203.17 -275.08,-203.17l30.13 -36.04c75.49,57.02 175.2,142.2 244.95,239.21z"/>
      <path class="fil3" d="M2333.41 131.95c0,0 -20.26,166.95 -304.13,166.95l0 -87.15c181.83,0 244.59,-37.3 304.13,-79.8z"/>
      <path class="fil3" d="M2284.99 3902.37c-15.78,1.97 -31.56,3.76 -47.52,5.38 0,0 -20.26,-434.86 -45.01,-607.9 -24.74,-173.23 -81.59,-311.67 -81.59,-311.67l101.68 -121.22 -67.07 126.07c0,0 72.98,196.71 86.07,350.03 12.91,153.32 53.44,559.31 53.44,559.31z"/>
      <path class="fil1" d="M2261.68 2808.33l-30.13 36.04 -19 22.59 -101.68 121.22 -81.59 0 0 -209.09c62.4,0 115.12,-7.35 161.03,-21.69 18.47,12.37 43.22,29.77 71.37,50.93z"/>
      <path class="fil1" d="M2237.47 3907.75c-11.65,1.25 -23.31,2.33 -34.97,3.04l-0.18 -3.04c10.05,-180.04 -28.15,-575.81 -28.15,-575.81 0,0 -3.94,485.78 -72.27,584.95 -24.03,0.9 -48.23,1.26 -72.62,1.26l0 -929.97 81.59 0c0,0 56.85,138.44 81.59,311.67 24.75,173.04 45.01,607.9 45.01,607.9z"/>
      <path class="fil1" d="M2292.7 2351.23c0,0 -128.57,18.47 -263.42,18.47l0 -12.37c0,0 49.49,-32.99 66.71,-34.43 17.39,-1.43 127.49,27.08 196.71,28.33z"/>
      <path class="fil2" d="M2174.17 3331.94c0,0 38.2,395.77 28.15,575.81l0.18 3.04c-33.17,2.87 -66.71,5.03 -100.6,6.1 68.33,-99.17 72.27,-584.95 72.27,-584.95z"/>
      <path class="fil3" d="M2200.89 2107.54c0,0 -7.71,46.98 -78.36,62.04 9.86,-18.11 9.32,-34.79 9.32,-34.79 41.25,1.62 56.84,-10.58 69.04,-27.25z"/>
      <path class="fil3" d="M2155.34 2734.44c1.79,1.08 14.53,9.15 34.97,22.96 -45.91,14.34 -98.63,21.69 -161.03,21.69l0 -30.84c24.03,0 76.03,-1.97 126.06,-13.81z"/>
      <path class="fil2" d="M2029.28 2442.69c101.85,0 148.12,-5.56 151.89,-5.92 -5.03,3.05 -84.82,51.64 -151.89,51.64l0 -45.72z"/>
      <path class="fil3" d="M2122.53 2169.58c-11.48,20.8 -36.94,43.22 -93.25,43.22l0 -26c65.45,0 102.57,-52.01 102.57,-52.01 0,0 0.54,16.68 -9.32,34.79z"/>
     </g>
     <g>
      <g>
       <path class="fil0" d="M448.68 2712.39c0,25.1 1.07,50.03 3.05,74.78l0.17 0c158.88,-99.53 660.98,-301.09 660.98,-301.09 0,0 174.3,-148.48 275.8,-286.91 -12.73,-47.34 -35.15,-152.24 -55.77,-251.05 -2.87,-13.63 -5.74,-27.25 -8.43,-40.52 -7.35,-1.08 -14.34,-2.52 -21.16,-3.95 -109.02,-23.49 -154.57,-89.3 -168.38,-185.6 -414.59,217.34 -686.26,581.72 -686.26,994.34z"/>
       <path class="fil1" d="M700.44 2705.21c-11.65,8.97 -198.32,152.79 -207.11,179.68 -8.97,26.9 66.53,277.06 110.82,349.5 1.25,2.15 2.69,4.31 3.94,6.1 140.77,220.21 367.07,402.93 645.74,522.72 -137,-154.93 -207.83,-410.29 -207.83,-410.29l86.25 -305.38 -197.43 -45.73 -40.89 -222.72c44.47,-122.47 147.05,-207.47 147.05,-207.47 21.69,-29.41 45.9,-58.64 71.9,-85.54 0,0 -502.1,201.56 -660.98,301.09l-0.17 0c0.89,12.9 2.33,25.46 3.94,38.19l244.77 -120.15z"/>
       <path class="fil2" d="M700.44 2705.21l-244.77 120.15c17.57,145.43 69.04,283.33 148.48,409.03 -44.29,-72.44 -119.79,-322.6 -110.82,-349.5 8.79,-26.89 195.46,-170.71 207.11,-179.68z"/>
       <path class="fil3" d="M855.38 1007.22c-122.3,37.3 -272.39,143.46 -266.29,263.07 0,0 29.76,-60.62 108.84,-143.46 74.06,-77.65 148.48,-115.13 157.45,-119.61z"/>
       <path class="fil1" d="M1237.69 931.37c1.08,-5.92 2.16,-12.02 3.23,-18.11l-23.31 -0.54c-679.81,44.83 -750.28,341.6 -609.34,515.91 83.21,102.93 223.26,205.86 524.7,272.93 7.35,1.61 14.88,3.22 22.41,4.84 41.42,8.78 85.72,16.85 133.24,24.2 190.26,29.41 431.81,46.81 740.6,46.81l0 -31.56c-752.61,0 -1084.18,-116.2 -1273.37,-242.45 13.27,6.28 445.62,208.38 1273.37,208.38l0 -349.86c-275.8,0 -530.98,-40.35 -690.03,-106.34 -152.07,-63.12 -225.05,-121.22 -226.31,-143.46 -1.25,-22.41 101.86,-39.99 101.86,-39.99l1.61 0.18c5.56,-44.11 13.09,-91.63 21.34,-140.94zm-648.6 338.92l0 0c-6.1,-119.61 143.99,-225.77 266.29,-263.07 0.36,-0.18 0.54,-0.18 0.89,-0.36 0,0 -0.35,0.18 -0.89,0.36 -8.97,4.48 -83.39,41.96 -157.45,119.61 -79.08,82.84 -108.84,143.46 -108.84,143.46z"/>
       <path class="fil3" d="M970.15 2966.13l-0.18 0c-31.93,-115.67 -49.68,-194.39 -49.68,-194.39 0,0 46.45,-99.88 120.69,-200.12 0,0 -102.58,85 -147.05,207.47l40.89 222.72 197.43 45.73 -86.25 305.38c0,0 70.83,255.36 207.83,410.29 23.13,10.04 46.63,19.55 70.47,28.51 -95.75,-108.13 -180.93,-299.28 -248,-487.03 1.26,-3.05 109.57,-272.57 109.57,-272.57l-63.48 -19.37 -152.24 -46.62z"/>
       <path class="fil1" d="M1368.42 2657.16c-6.82,12.01 -116.74,205.32 -182.55,374.96 0,0 -108.31,269.52 -109.57,272.57 67.07,187.75 152.25,378.9 248,487.03l0.18 0.18c14.53,5.56 29.41,10.94 44.3,16.14 -81.6,-114.94 -178.07,-280.46 -255.72,-503 3.41,2.34 56.67,36.23 180.94,-28.33 131.8,-68.5 131.8,-371.37 131.8,-371.37 -2.51,263.06 65.27,733.24 152.42,962.95 5.02,1.26 10.22,2.34 15.43,3.41 -45.02,-192.59 -116.03,-757.45 -135.03,-1185.13 -6.46,-142.93 -7,-270.42 1.25,-363.67 -37.48,-52.18 -64.02,-96.83 -71.19,-123.73 -101.5,138.43 -275.8,286.91 -275.8,286.91 -26,26.9 -50.21,56.13 -71.9,85.54 -74.24,100.24 -120.69,200.12 -120.69,200.12 0,0 17.75,78.72 49.68,194.39l0.18 0 152.24 46.62 246.03 -355.59z"/>
       <path class="fil3" d="M2029.22 1711.78c-827.75,0 -1260.1,-202.1 -1273.37,-208.38 189.19,126.25 520.76,242.45 1273.37,242.45l0 -34.07z"/>
       <path class="fil3" d="M1214.74 1072.13c0,0 -103.11,17.58 -101.86,39.99 1.26,22.24 74.24,80.34 226.31,143.46 159.05,65.99 414.23,106.34 690.03,106.34l0 -33.54c-630.68,0 -819.86,-192.77 -819.86,-192.77 1.79,-20.26 4.12,-41.42 6.99,-63.3l-1.61 -0.18z"/>
       <path class="fil3" d="M1368.42 2657.16l-246.03 355.59 63.48 19.37c65.81,-169.64 175.73,-362.95 182.55,-374.96z"/>
       <path class="fil2" d="M1134.94 1718.05c13.81,96.3 59.36,162.11 168.38,185.6 0,0 -83.38,-64.56 -102.75,-89.12 -45.19,-57.39 -45.19,-108.13 -45.19,-108.13 -7.53,-1.62 -15.06,-3.23 -22.41,-4.84 0.54,5.55 1.25,11.11 1.97,16.49z"/>
       <path class="fil1" d="M1294 3276.71c-124.27,64.56 -177.53,30.67 -180.94,28.33 77.65,222.54 174.12,388.06 255.72,503 67.24,23.67 137.36,43.94 209.44,60.25 -87.15,-229.71 -154.93,-699.89 -152.42,-962.95 0,0 0,302.87 -131.8,371.37z"/>
       <path class="fil3" d="M1155.38 1706.4c0,0 0,50.74 45.19,108.13 19.37,24.56 102.75,89.12 102.75,89.12 6.82,1.43 13.81,2.87 21.16,3.95 -13.09,-62.77 -24.38,-118.9 -30.48,-150.46 -3.41,-16.85 -5.38,-26.54 -5.38,-26.54 -47.52,-7.35 -91.82,-15.42 -133.24,-24.2z"/>
       <path class="fil4" d="M1937.76 1005.25c-394.86,-13.45 -624.21,-111 -687.87,-142.2 -1.98,10.94 -3.95,21.69 -5.92,32.46 70.47,42.85 173.58,73.7 298.03,97.9 0,0 -131.08,28.34 -304.31,-62.04 -8.25,49.31 -15.78,96.83 -21.34,140.94 -2.87,21.88 -5.2,43.04 -6.99,63.3 0,0 189.18,192.77 819.86,192.77l0 -321.52c-31.38,0 -61.87,-0.53 -91.46,-1.61z"/>
       <path class="fil1" d="M1240.92 913.26c-1.07,6.09 -2.15,12.19 -3.23,18.11 173.23,90.38 304.31,62.04 304.31,62.04 -124.45,-24.2 -227.56,-55.05 -298.03,-97.9 -1.08,5.91 -1.97,11.83 -3.05,17.75z"/>
       <path class="fil3" d="M1257.78 820.19c-2.7,14.34 -5.38,28.69 -7.89,42.86 63.66,31.2 293.01,128.75 687.87,142.2 -419.61,-42.86 -575.26,-128.04 -679.98,-185.06z"/>
       <path class="fil1" d="M1518.87 198.66c-5.2,4.66 -87.69,78.54 -107.42,155.65 -20.26,79.8 -76.03,354.34 -76.03,354.34l33.36 -374.6c0,0 27.97,-70.48 150.09,-135.39zm-174.84 105.8l0 0c-12.91,143.1 -52.54,334.97 -86.25,515.73 104.72,57.02 260.37,142.2 679.98,185.06 29.59,1.08 60.08,1.61 91.46,1.61l0 -707.96c-283.87,0 -304.13,-166.95 -304.13,-166.95 59.53,42.5 122.29,79.8 304.13,79.8l0 -22.24c-37.66,1.98 -94.33,0.54 -159.42,-18.65 -74.42,-21.69 -128.04,-57.02 -159.59,-81.59 -52.91,-1.97 -118.9,0.36 -247.29,92.71 -56.49,40.71 -94.32,86.62 -118.89,122.48z"/>
       <path class="fil3" d="M1288.62 1730.6c0,0 1.97,9.69 5.38,26.54 0,0 43.93,108.67 76.75,212.32 40.88,18.65 82.48,20.09 198.51,22.24 150.27,2.69 192.95,32.45 252.3,34.24 59.36,1.8 124.27,-68.67 207.66,-68.67l0 -179.86c-308.79,0 -550.34,-17.4 -740.6,-46.81z"/>
       <path class="fil2" d="M1294 1757.14c6.1,31.56 17.39,87.69 30.48,150.46 2.69,13.27 5.56,26.89 8.43,40.52 13.81,8.97 25.65,15.96 37.84,21.34 -32.82,-103.65 -76.75,-212.32 -76.75,-212.32z"/>
       <path class="fil4" d="M1368.78 334.05l-33.36 374.6c0,0 55.77,-274.54 76.03,-354.34 19.73,-77.11 102.22,-150.99 107.42,-155.65 -122.12,64.91 -150.09,135.39 -150.09,135.39z"/>
       <path class="fil5" d="M1370.75 1969.46c-12.19,-5.38 -24.03,-12.37 -37.84,-21.34 20.62,98.81 43.04,203.71 55.77,251.05 7.17,26.9 33.71,71.55 71.19,123.73 25.47,35.51 55.95,74.42 88.76,113.69 61.87,73.7 132.16,148.66 194.03,203.53 -10.22,-10.22 -105.62,-106.16 -188.29,-235.81 -87.51,-137 -131.8,-209.44 -154.03,-324.57 -6.1,-31.92 -17.04,-70.65 -29.59,-110.28z"/>
       <path class="fil2" d="M1850.79 2108.79c-57.38,14.35 -125.16,109.75 -134.67,185.06 -1.07,13.99 -1.07,22.77 -1.07,22.77 -0.36,-7.35 0,-14.88 1.07,-22.77 1.8,-27.97 6.64,-76.57 19.91,-114.59 16.85,-47.88 91.81,-65.99 114.76,-70.47zm52.36 625.65l0 0c50.04,11.84 102.04,13.81 126.07,13.81l0 -259.84c-67.07,0 -146.87,-48.59 -151.89,-51.64 3.77,0.36 50.03,5.92 151.89,5.92l0 -72.99c-134.85,0 -263.43,-18.47 -263.43,-18.47 69.22,-1.25 179.33,-29.76 196.72,-28.33 17.21,1.44 66.71,34.43 66.71,34.43l0 -144.53c-56.31,0 -81.77,-22.42 -93.25,-43.22 -70.65,-15.06 -78.36,-62.04 -78.36,-62.04 12.19,16.67 27.79,28.87 69.03,27.25 0,0 37.12,52.01 102.58,52.01l0 -229.53c-83.39,0 -148.3,70.47 -207.66,68.67 -59.35,-1.79 -102.03,-31.55 -252.3,-34.24 -116.03,-2.15 -157.63,-3.59 -198.51,-22.24 12.55,39.63 23.49,78.36 29.59,110.28 22.23,115.13 66.52,187.57 154.03,324.57 82.67,129.65 178.07,225.59 188.29,235.81 0.54,0.36 0.9,0.72 0.9,0.72 39.81,35.33 75.85,62.22 103.82,75.13 17.04,7.89 36.23,13.99 55.77,18.47z"/>
       <path class="fil5" d="M1459.87 2322.9c-8.25,93.25 -7.71,220.74 -1.25,363.67 6.99,46.44 15.78,90.73 25.1,131.26 31.02,134.85 68.14,229.71 68.14,229.71 69.76,-97.01 169.46,-182.19 244.96,-239.21 28.15,-21.16 52.9,-38.56 71.37,-50.93 -138.44,-43.58 -216.62,-151.89 -319.56,-320.81 -32.81,-39.27 -63.29,-78.18 -88.76,-113.69z"/>
       <path class="fil2" d="M1483.72 2817.83c-9.32,-40.53 -18.11,-84.82 -25.1,-131.26 19,427.68 90.01,992.54 135.03,1185.13 28.87,6.28 58.1,12.01 87.5,17.04 -91.99,-255.9 -194.38,-1046.17 -197.43,-1070.91z"/>
       <path class="fil5" d="M1551.86 3047.54c0,0 -37.12,-94.86 -68.14,-229.71 3.05,24.74 105.44,815.01 197.43,1070.91 30.49,5.2 61.15,9.86 92.35,13.63 0,0 40.53,-405.99 53.44,-559.31 13.09,-153.32 86.08,-350.03 86.08,-350.03l-67.07 -126.07 -19.01 -22.59c0,0 -168.74,103.65 -275.08,203.17z"/>
       <path class="fil1" d="M1742.66 2640.12c-61.87,-54.87 -132.16,-129.83 -194.03,-203.53 102.94,168.92 181.12,277.23 319.56,320.81 20.44,-13.81 33.17,-21.88 34.96,-22.96 -19.54,-4.48 -38.73,-10.58 -55.77,-18.47 -27.97,-12.91 -64.01,-39.8 -103.82,-75.13 0,0 -0.36,-0.36 -0.9,-0.72z"/>
       <path class="fil1" d="M1736.03 2179.26c-13.27,38.02 -18.11,86.62 -19.91,114.59 9.51,-75.31 77.29,-170.71 134.67,-185.06 -22.95,4.48 -97.91,22.59 -114.76,70.47z"/>
       <path class="fil3" d="M1551.86 3047.54c106.34,-99.52 275.08,-203.17 275.08,-203.17l-30.12 -36.04c-75.5,57.02 -175.2,142.2 -244.96,239.21z"/>
       <path class="fil3" d="M1725.09 131.95c0,0 20.26,166.95 304.13,166.95l0 -87.15c-181.84,0 -244.6,-37.3 -304.13,-79.8z"/>
       <path class="fil3" d="M1773.5 3902.37c15.79,1.97 31.56,3.76 47.53,5.38 0,0 20.26,-434.86 45,-607.9 24.75,-173.23 81.6,-311.67 81.6,-311.67l-101.68 -121.22 67.07 126.07c0,0 -72.99,196.71 -86.08,350.03 -12.91,153.32 -53.44,559.31 -53.44,559.31z"/>
       <path class="fil1" d="M1796.82 2808.33l30.12 36.04 19.01 22.59 101.68 121.22 81.59 0 0 -209.09c-62.41,0 -115.13,-7.35 -161.03,-21.69 -18.47,12.37 -43.22,29.77 -71.37,50.93z"/>
       <path class="fil1" d="M1821.03 3907.75c11.65,1.25 23.31,2.33 34.96,3.04l0.18 -3.04c-10.04,-180.04 28.15,-575.81 28.15,-575.81 0,0 3.95,485.78 72.27,584.95 24.03,0.9 48.24,1.26 72.63,1.26l0 -929.97 -81.59 0c0,0 -56.85,138.44 -81.6,311.67 -24.74,173.04 -45,607.9 -45,607.9z"/>
       <path class="fil1" d="M1765.79 2351.23c0,0 128.58,18.47 263.43,18.47l0 -12.37c0,0 -49.5,-32.99 -66.71,-34.43 -17.39,-1.43 -127.5,27.08 -196.72,28.33z"/>
       <path class="fil3" d="M1884.32 3331.94c0,0 -38.19,395.77 -28.15,575.81l-0.18 3.04c33.18,2.87 66.71,5.03 100.6,6.1 -68.32,-99.17 -72.27,-584.95 -72.27,-584.95z"/>
       <path class="fil3" d="M1857.61 2107.54c0,0 7.71,46.98 78.36,62.04 -9.86,-18.11 -9.33,-34.79 -9.33,-34.79 -41.24,1.62 -56.84,-10.58 -69.03,-27.25z"/>
       <path class="fil3" d="M1903.15 2734.44c-1.79,1.08 -14.52,9.15 -34.96,22.96 45.9,14.34 98.62,21.69 161.03,21.69l0 -30.84c-24.03,0 -76.03,-1.97 -126.07,-13.81z"/>
       <path class="fil2" d="M2029.22 2442.69c-101.86,0 -148.12,-5.56 -151.89,-5.92 5.02,3.05 84.82,51.64 151.89,51.64l0 -45.72z"/>
       <path class="fil3" d="M1935.97 2169.58c11.48,20.8 36.94,43.22 93.25,43.22l0 -26c-65.46,0 -102.58,-52.01 -102.58,-52.01 0,0 -0.53,16.68 9.33,34.79z"/>
      </g>
     </g>
    </g>
    <path class="fil5" d="M1783.46 2360.95c33.08,15.46 23.8,42.9 91.2,42.78 67.4,-0.12 137.27,-10.43 137.27,-10.43l163.25 -18.44 100.46 -19.81 -4 -1.52c0,0 -118.17,16.17 -242.42,16.17 -124.26,0 -260.92,-18.03 -260.92,-18.03l15.16 9.28z"/>
    <path class="fil3" d="M2142.19 2378.59c-28.15,-0.02 -65.44,-0.22 -103.05,-0.89 -76.04,-1.35 -134.65,-3.76 -261.46,-24.86 -0.23,-0.02 -0.48,-0.05 -0.7,-0.08l-6.9 0 13.38 8.19c33.08,15.46 23.8,42.9 91.2,42.78 67.4,-0.12 137.27,-10.43 137.27,-10.43l130.26 -14.71z"/>
    <path class="fil5" d="M2090.29 2063.64c16.41,-2.06 25.03,66.07 2.16,66.03 -22.87,-0.03 -25.08,-63.14 -2.16,-66.03z"/>
    <path class="fil5" d="M2160.99 2391.86c15.55,-17.11 56.95,-6.49 39.9,4.64 -17.05,11.13 -52.54,9.28 -39.9,-4.64z"/>
    <g>
     <path class="fil3" d="M2074.33 2259.08c20.96,-21.92 62.14,-14.84 105.74,5.57 43.59,20.4 128.92,51.94 125.21,61.22 -1.81,4.53 -23.18,1.27 -26.49,1.03 -19.65,-1.39 -39.24,-3.85 -58.77,-6.5 -22.76,-3.08 -45.53,-6.17 -68.14,-10.21 -18.34,-3.28 -38.65,-5.7 -55.91,-12.92 -11.66,-4.87 -35,-24.21 -21.64,-38.19z"/>
     <path class="fil3" d="M1984.17 2259.08c-20.96,-21.92 -62.15,-14.84 -105.74,5.57 -43.6,20.4 -128.93,51.94 -125.22,61.22 1.82,4.53 23.18,1.27 26.49,1.03 19.66,-1.39 39.25,-3.85 58.77,-6.5 22.76,-3.08 45.53,-6.17 68.15,-10.21 18.33,-3.28 38.64,-5.7 55.91,-12.92 11.66,-4.87 35,-24.21 21.64,-38.19z"/>
    </g>
    <path class="fil3" d="M1903.15 2393.3c65.18,5.59 311.06,-22.72 389.55,-42.07 0,0 -68.24,29.22 -170.18,34.62 -101.93,5.39 -232.51,36.76 -232.51,36.76l13.14 -29.31z"/>
    <path class="fil3" d="M1765.79 2351.23c0,0 24.88,22.84 57.72,47.26l13.27 -9.93 -59.62 -35.8 -11.37 -1.53z"/>
    <path class="fil1" d="M1960.3 2477.2c60.29,-5.57 194.77,-21.34 198.02,-10.21 3.25,11.13 -80.22,46.38 -126.6,46.38 -46.37,0 -71.42,-36.17 -71.42,-36.17z"/>
    <g>
     <path class="fil3" d="M2253.93 2348.74c7.64,-4.08 37.3,-2.51 42.87,2.07 5.56,4.57 33.13,37.52 16.36,39.66 -6.96,0.89 -59.23,-41.73 -59.23,-41.73z"/>
     <path class="fil3" d="M1804.57 2348.74c-7.65,-4.08 -37.3,-2.51 -42.87,2.07 -5.57,4.57 -33.13,37.52 -16.37,39.66 6.97,0.89 59.24,-41.73 59.24,-41.73z"/>
    </g>
    <g>
     <path class="fil1" d="M1904.19 2404.98c-7.78,21.5 -221.44,207.03 -274.74,258.96l0 0.23c-13.5,13.04 -21.74,21.05 -21.74,21.05 -0.91,0 -40.95,-0.23 -67.95,-37.75 -27.45,-37.75 -10.52,-56.74 -10.52,-56.74l14.64 -10.52 0.23 0 304.01 -227.43c30.66,-10.3 65.45,25.66 56.07,52.2z"/>
     <path class="fil5" d="M1629.45 2663.94l0 0.23c-13.5,13.04 -21.74,21.05 -21.74,21.05 -0.91,0 -40.95,-0.23 -67.95,-37.75 -25.62,-35.23 -12.58,-53.99 -10.75,-56.5l0.23 -0.24 14.64 -10.52 0.23 0c29.52,-6.4 83.02,52.28 85.34,83.73z"/>
     <path class="fil0" d="M1607.71 2685.22c-0.91,0 -40.95,-0.23 -67.95,-37.75 -25.62,-35.23 -12.58,-53.99 -10.75,-56.5l0.23 -0.24c9.61,-6.86 40.73,9.15 56.97,32.26 16.01,23.34 28.82,51.02 21.5,62.23z"/>
    </g>
    <path class="fil3" d="M1903.15 2393.3l-273.7 229.21c0,0 7.26,11.19 5.91,24.11l267.79 -237.75 8.31 -15.07 -8.31 -0.5z"/>
    <polygon class="fil4" points="1576.76,2571.62 1845.29,2369.7 1602.67,2584.06 "/>
    <path class="fil2" d="M2949.38 3271.16l-170.07 -398.37c0,0 77.91,263.91 107.59,308.88 29.68,44.97 62.48,89.49 62.48,89.49z"/>
    <path class="fil2" d="M968.78 2748.25c0,0 127.18,-209.66 144.28,-230.15 17.11,-20.5 -27.41,64.19 -53.39,122.02 -25.97,57.83 -90.89,108.13 -90.89,108.13z"/>
   </g>
   <path class="fil6" d="M1371.73 2481.26c-46.07,-37.56 -83.73,-88.62 -92.98,-147.35 -10.64,-66.92 16.06,-133.3 30.53,-199.48 14.47,-66.28 12.45,-145.85 -40,-188.83 -62.66,-51.28 -169.27,-26.92 -221.93,-88.41 -36.7,-42.98 -28.4,-108.41 -7.87,-161.07 20.64,-52.77 51.6,-103.2 54.68,-159.69 3.83,-70.01 -37.77,-136.71 -93.51,-179.27 -55.86,-42.55 -124.27,-64.68 -192.25,-82.34 -52.02,-13.52 -106.49,-25.64 -148.94,-58.73 -11.32,-8.81 -21.06,-19.2 -29.54,-30.53 12.86,31.16 32.86,59.2 56.87,82.76 25.93,25.43 56.03,46.61 88.72,62.44 36.82,17.83 76.61,28.79 113.78,45.89 37.16,17.1 72.92,41.88 91.34,78.41 22.37,44.35 15.18,98.51 -4.01,144.32 2.95,-36.18 -17.77,-71.04 -45.62,-94.33 -61.26,-51.23 -158.55,-77.86 -235.45,-92.27 -34.53,-6.47 -70.37,-10.48 -101.41,-26.91 -31.05,-16.44 -56.67,-49.4 -51.91,-84.2 -16.62,67.14 -2.7,139.28 27.67,201.42 19.84,40.58 46.4,77.45 75.86,111.55 28.27,32.72 53.33,48.43 90.04,69.03 64.88,36.41 145.07,61.78 181.33,132.45 16.49,32.24 21.07,70.43 42.98,99.26 22.66,29.9 58.62,43.41 94.26,57.67 24.37,7.34 46.92,18.3 66.5,34.15 -19.37,-15 -42.88,-24.69 -66.5,-34.15 -44.79,-13.73 -95.11,-15.64 -142.45,-15.11 -79.48,0.85 -165.65,3.19 -229.91,-43.62 -58.83,-42.87 -82.56,-113.94 -110,-183.42 -22.77,-38.29 -57.35,-69.47 -99.48,-82.98 -56.17,-18.09 -124.47,0 -157.98,48.52 -22.67,32.76 -27.88,74.47 -27.24,114.26 0.64,41.27 7.24,83.3 27.13,119.47 28.3,51.49 80.96,86.07 136.71,104.69 108.3,36.17 244.27,40.21 357.57,36.7 29.9,-0.96 59.9,-3.19 89.79,-3.94 61.81,-1.6 134.69,-2.34 189.38,30.64 78.4,47.13 46.38,156.82 47.87,232.35 0.96,51.82 8.94,105.22 39.58,148.2 58.19,81.5 167.88,125.86 265.22,131.82 34.47,2.13 73.3,-6.17 83.52,-41.71 -53.2,-25 -106.82,-50.53 -152.35,-87.66z"/>
   <path class="fil6" d="M971.38 2128.72c3.86,0.53 7.72,1.15 11.57,1.86 20.73,3.83 41.75,10.86 56.79,25.63 22.04,21.65 25.64,53.16 27.61,82.39 2.26,33.61 1.61,69.28 18.86,98.21 -4.71,-7.9 -15.6,-14.05 -21.07,-22.41 -6.44,-9.82 -11.02,-20.73 -15.15,-31.67 -8.27,-21.94 -13.9,-45.16 -25.52,-65.69 -28.97,-51.19 -94.18,-54.58 -146.45,-44.65 -44.52,8.47 -88.33,23.21 -132.22,34.03 -47.09,11.62 -95.94,17.92 -144.28,21.21 -22.98,1.56 -47.65,1.87 -67.04,-10.55 -16.06,-10.29 -26.37,-29.02 -26.47,-48.1 -0.2,-41.97 25,-46.08 57.14,-40.18 55.86,10.25 111.7,8.91 168.2,7.11 40.98,-1.3 81.94,-3.34 122.85,-6.12 38.18,-2.6 77.05,-7.29 115.18,-1.07z"/>
  </g>
 </g>
</svg>
